<?xml version="1.0" encoding="utf-8"?>
<!-- Generator: Adobe Illustrator 27.5.0, SVG Export Plug-In . SVG Version: 6.00 Build 0)  -->
<svg version="1.1" id="Capa_2" xmlns="http://www.w3.org/2000/svg" xmlns:xlink="http://www.w3.org/1999/xlink" x="0px" y="0px"
	 viewBox="0 0 2122 2122" style="enable-background:new 0 0 2122 2122;" xml:space="preserve">
<path style="fill:#1B1F3C;" d="M1844.916,421.189c-3.094-2.894-7.684-3.492-11.425-1.547l-333.367,174.716
	c25.394-129.216,35.073-270.256-0.499-387.847c-1.197-4.041-4.839-6.885-9.08-7.084c-4.341-0.199-8.083,2.295-9.678,6.186
	l-206.647,507.085l-198.812,104.171l-0.05,0.05l-0.15,0.1l-0.449,0.25l-0.05,0.05c-0.698,0.399-1.297,0.898-1.845,1.497l-0.15,0.15
	l-0.199,0.199l-0.25,0.299c-24.396,30.233-80.073,47.446-101.826,47.795c-43.255,0.698-87.408-4.39-130.064-9.28
	c-33.027-3.842-67.202-7.783-101.128-9.08c-129.864-4.989-301.537,39.314-392.936,149.521
	c-85.711,103.373-96.887,231.94-29.185,335.562c55.577,85.013,150.768,133.207,253.143,133.207c30.482,0,61.614-4.291,92.496-13.121
	c110.657-31.68,228.797-123.129,315.905-244.562c14.07-19.657,27.69-40.012,40.861-59.719
	c23.698-35.472,48.244-72.191,75.983-105.169c10.627-12.572,22.451-23.548,50.389-46.647c2.245-0.998,7.284-3.143,14.718-6.486
	l-2.744,6.685c-0.199,0.499-0.349,1.048-0.499,1.596v0.05l-0.05,0.299l-0.05,0.05v0.249l-0.05,0.05v0.299l-0.05,0.05v0.05
	c-0.25,2.395-10.976,91.549-40.461,122.481c-29.934,31.281-64.509,59.12-97.985,86.061c-25.893,20.804-52.684,42.357-77.48,65.606
	c-94.641,88.855-183.745,242.267-169.477,384.754c13.42,133.606,97.086,231.84,218.37,256.386
	c19.109,3.891,38.216,5.737,57.174,5.737c109.56,0,213.881-62.662,271.054-167.432c55.179-101.078,73.039-249.352,47.795-396.678
	c-4.091-23.798-9.08-47.795-13.819-70.994c-8.632-41.808-17.561-85.063-21.553-127.969c-2.744-29.735-4.39-47.994-2.095-68
	c0.997-1.996,2.893-5.837,5.537-11.325c7.283-15.017,19.557-40.86,30.234-66.055c18.659-42.656,42.257-100.23,65.456-166.284
	c3.991-2.544,8.032-5.089,12.073-7.633c144.233-91.499,331.621-236.43,405.309-407.055
	C1848.957,428.573,1848.008,424.083,1844.916,421.189z M886.372,1114.066c-7.882,51.686-39.563,92.596-64.707,117.891
	c-1.297,1.297-2.595,2.544-3.942,3.842c-68.549,65.207-211.484,119.487-307.124,93.145c-48.493-13.371-80.273-45.949-94.543-96.837
	c-3.642-12.971-5.238-25.544-5.238-37.617c0-80.673,72.54-140.242,107.314-164.089c32.429-22.301,69.548-40.511,104.621-51.237
	c33.077-10.178,74.386-20.655,115.695-20.655c34.225,0,68.4,7.184,97.934,27.589
	C873.402,1011.691,893.956,1064.325,886.372,1114.066z M1271.825,1490.887c-1.696,94.592-63.46,234.534-149.371,284.075
	c-43.554,25.145-89.104,24.895-135.303-0.698c-90.501-50.14-80.473-166.584-71.942-214.329
	c6.885-38.715,20.006-77.929,36.969-110.457c29.236-56.127,77.131-132.459,154.959-147.176
	c44.203-8.382,96.139,13.919,126.223,54.281c31.231,41.858,38.166,93.145,38.515,128.817
	C1271.875,1487.245,1271.875,1489.041,1271.825,1490.887z"/>
<path style="fill:#92CEE8;" d="M1087.188,833.24l-39.11,65.93l-28.68,48.348c21.461,6.736,69.393,21.06,120.175,31.44
	c39.517-17.196,480.915-213.901,652.581-485.277c8.853-13.993,16.99-28.184,24.316-42.559L1087.188,833.24z"/>
<path style="fill:#67BADF;" d="M1163.404,933.601c-44.753-10.972-87.58-24.844-115.327-34.431l-28.68,48.348
	c21.461,6.736,69.393,21.06,120.175,31.44c39.517-17.196,480.915-213.901,652.581-485.277
	C1578.995,762.354,1163.404,933.601,1163.404,933.601z"/>
<path style="fill:#852D15;" d="M1444.257,748.893c-0.463-3.873-1.962-8.321-5.083-10.471l-0.982-0.568
	c-1.487-0.709-3.074-0.824-4.478-0.508c-1.718,0.387-3.196,1.369-4.542,2.491c-3.695,3.078-6.568,7.258-10.278,10.313
	c-4.859,4.002-11.011,5.937-17.399,6.627c-3.319,0.359-6.817,0.424-9.584,2.118c-1.716,1.051-3.07,2.909-3.509,5.221
	c-0.481,2.538,0.322,4.917,1.914,7.242c3.077,4.497,7.462,7.58,11.853,9.426l0.618,0.255l0.817,0.31
	c0.519,0.188,1.04,0.358,1.562,0.512l0.522,0.15c2.626,0.722,5.232,1.09,7.783,1.138l0.951,0.003l0.947-0.026l1.293-0.084
	l1.28-0.138c0.849-0.11,1.688-0.255,2.517-0.434l1.234-0.293c1.227-0.319,2.427-0.712,3.597-1.175l1.263-0.533l1.236-0.587
	l0.809-0.421c0.937-0.504,1.847-1.056,2.729-1.65l0.656-0.455l1.277-0.957l0.622-0.502c3.01-2.498,5.609-5.62,7.484-9.375
	C1443.857,761.52,1445.03,755.351,1444.257,748.893z"/>
<path style="fill:#EA4E70;" d="M1438.492,771.064c-5.046-6.217-10.882-8.887-19.876-5.924c-8.121,2.674-14.528,7.143-18.277,14.795
	c0.607,0.305,1.218,0.59,1.829,0.851l0.618,0.255l0.817,0.31c0.519,0.188,1.04,0.358,1.562,0.512l0.522,0.15
	c2.626,0.722,5.232,1.09,7.783,1.138l0.951,0.003l0.947-0.026l1.293-0.084l1.28-0.138c0.849-0.11,1.688-0.255,2.517-0.434
	l1.234-0.293c1.227-0.319,2.427-0.712,3.597-1.175l1.263-0.533l1.236-0.587l0.809-0.421c0.937-0.504,1.847-1.056,2.729-1.65
	c0.881-0.595,1.733-1.235,2.554-1.915C1435.572,774.491,1437.115,772.866,1438.492,771.064z"/>
<path style="fill:#E1648E;" d="M1346.471,1361.147c-4.025-23.464-8.935-47.279-13.686-70.309
	c-8.74-42.358-17.773-86.156-21.837-130.202c-2.06-22.292-3.614-39.109-3.228-55.36c-57.6,30.293-111.882,51.898-112.475,52.132
	c-1.184,0.471-2.432,0.702-3.674,0.702c-1.7,0-3.391-0.434-4.906-1.289c-2.621-1.481-4.438-4.071-4.935-7.042l-12.441-74.344
	l-2.737-16.358c-7.133,28.261-18.426,60.222-35.423,78.025c-30.806,32.271-65.925,60.519-99.893,87.837
	c-25.617,20.606-52.112,41.914-76.312,64.633c-88.136,82.729-176.818,233.23-163.273,368.177c1.844,18.37,5.104,36.019,9.681,52.837
	c26.462,97.241,96.98,166.63,192.794,186.032c100.375,20.312,234.133-18.714,306.747-151.737
	C1353.96,1647.641,1371.007,1504.19,1346.471,1361.147z M1294.188,1491.242c-1.822,100.601-68.214,249.832-160.579,303.13
	c-24.926,14.385-50.914,21.576-77.233,21.576c-26.636,0-53.618-7.364-80.2-22.09c-72.628-40.241-102.943-126.947-83.167-237.89
	c7.288-40.899,21.198-82.411,39.167-116.891c31.411-60.277,83.278-142.328,170.694-158.894
	c53.165-10.08,112.818,15.208,148.409,62.918c34.865,46.748,42.597,103.052,42.938,142.051
	C1294.237,1487.174,1294.222,1489.208,1294.188,1491.242z"/>
<path style="fill:#D64677;" d="M1307.721,1105.276c-57.6,30.293-111.882,51.898-112.475,52.132
	c-1.184,0.471-2.432,0.702-3.674,0.702c-1.7,0-3.391-0.434-4.906-1.289c-2.621-1.481-4.438-4.071-4.935-7.042l-12.441-74.344
	c-3.172,28.389-6.452,67.002-1.054,84.276c3.315,10.607,121.067-17.908,121.067-17.908c-2.174,37.53-1.715,75.227,2.372,112.615
	c3.463,31.692,8.826,63.206,13.135,94.792c8.121,59.516,14.823,119.596,12.917,179.759c-1.868,59-12.295,118.059-37.773,171.68
	c-26.53,55.836-69.408,106.673-123.598,137.268c-50.547,28.538-109.553,36.901-166.129,24.095
	c-59.59-13.489-116.328-47.023-154.607-94.802c-13.907-17.358-25.242-36.454-34.289-56.626
	c26.462,97.241,96.98,166.63,192.794,186.032c100.375,20.312,234.133-18.714,306.747-151.737
	c53.087-97.24,70.134-240.691,45.598-383.734c-4.025-23.464-8.935-47.279-13.686-70.309c-8.74-42.358-17.773-86.156-21.837-130.202
	C1308.889,1138.344,1307.335,1121.528,1307.721,1105.276z"/>
<path style="fill:#FFFFFF;" d="M842.569,1609.193c8.049-0.124,12.955-7.367,15.885-13.703
	c10.806-23.371,17.362-47.956,24.338-72.346c11.77-41.154,25.074-82.532,49.514-119.492c4.351-6.581,9.163-13.313,9.795-20.832
	c0.632-7.519-4.587-16.028-13.408-17.16c-8.925-1.146-16.472,5.286-22.038,11.292c-7.181,7.749-13.928,15.784-20.229,24.061
	c-36.271,47.64-57.704,103.063-61.653,159.616c-0.783,11.216-0.873,22.592,2.089,33.545c1.492,5.515,4.995,11.647,10.538,14.014
	C838.961,1608.855,840.684,1609.222,842.569,1609.193z"/>
<path style="fill:#60B7DE;" d="M1488.127,240.649l-25.479,62.524l-161.047,395.192l55.178-28.911l120.34-63.054
	C1503.261,482.01,1514.139,351.788,1488.127,240.649z"/>
<path style="fill:#60B7DE;" d="M1187.126,979.272l-9.708,23.822l21.929,131.052c11.953-5.012,32.246-13.769,56.001-25.042
	c17.473-8.291,36.82-17.943,56.101-28.466c7.935-16.047,48.872-100.499,90.877-216.556c-43.647,26.372-85.159,49.379-121.619,68.556
	C1243.053,952.443,1210.787,968.161,1187.126,979.272z"/>
<polygon style="fill:#4AA7D2;" points="1462.648,303.173 1301.601,698.365 1356.778,669.454 "/>
<path style="fill:#4AA7D2;" d="M1280.708,932.638c-37.655,19.805-69.921,35.522-93.582,46.634l-9.708,23.822l21.929,131.052
	c11.953-5.012,32.246-13.769,56.001-25.042l-12.579-45.211L1280.708,932.638z"/>
<path style="fill:#F086A6;" d="M1001.254,962.646c-2.855-0.959-5.126-3.16-6.178-5.983c-1.048-2.826-0.765-5.975,0.775-8.568
	l33.909-57.159l15.328-25.839c-27.501,14.379-57.829,21.857-74.328,22.126c-44.653,0.73-89.388-4.436-132.692-9.435
	c-32.658-3.768-66.431-7.666-99.606-8.942c-5.895-0.227-11.927-0.341-18.041-0.341c-119.108,0-276.399,43.342-358.728,142.653
	c-8.333,10.051-15.91,20.354-22.733,30.855c-58.605,90.204-61.319,195.057-5.141,281.04
	c56.005,85.72,177.744,153.549,323.434,111.829c106.514-30.497,220.613-119.101,305.213-237.013
	c13.885-19.352,27.396-39.583,40.463-59.147c24.02-35.956,48.848-73.138,77.344-106.952c9.955-11.815,21.495-22.661,38.245-36.907
	C1055.936,980.912,1001.852,962.846,1001.254,962.646z M910.934,1117.801c-8.896,58.316-43.888,103.81-71.673,131.705
	c-1.447,1.452-2.918,2.889-4.409,4.307c-60.248,57.315-174.825,106.594-271.244,106.597c-21.018,0-41.169-2.341-59.713-7.452
	c-56.711-15.625-95.41-55.106-111.922-114.175c-22.66-81.052,18.149-164.526,111.941-228.994
	c34.436-23.672,74.002-43.038,111.405-54.531c65.472-20.119,161.077-40.94,235.147,10.273
	C895.753,996.841,920.05,1058.035,910.934,1117.801z"/>
<path style="fill:#ED6A96;" d="M995.076,956.663c-1.048-2.826-0.765-5.975,0.775-8.568l33.909-57.159
	c-36.357,23.57-74.663,50.325-90.325,64.554c-21.947,19.939,119.959,41.713,108.855,68.614
	c-27.031,65.478-112.25,196.365-157.894,250.68c-41.068,48.87-91.03,93.6-150.328,118.94
	c-63.169,26.995-133.424,34.048-201.027,22.819c-31.836-5.288-64.474-13.19-93.312-28.033c-24.73-12.729-46.357-31.49-63.515-53.303
	c-36.801-46.781-57.143-107.281-61.284-166.288c-3.037-43.286,2.836-86.724,18.032-126.908
	c-58.605,90.204-61.319,195.057-5.141,281.04c56.005,85.72,177.744,153.549,323.434,111.829
	c106.514-30.497,220.613-119.101,305.213-237.013c13.885-19.352,27.396-39.583,40.463-59.147
	c24.02-35.956,48.848-73.138,77.344-106.952c9.955-11.815,21.495-22.661,38.245-36.907c-62.583-13.95-116.667-32.016-117.266-32.216
	C998.398,961.687,996.128,959.486,995.076,956.663z"/>
<path style="fill:#FFFFFF;" d="M1191.239,858.141c-5.072-13.456-17.286-23.689-32.552-25.499
	c-21.814-2.587-41.595,12.999-44.182,34.813c-1.144,9.645,1.267,18.892,6.197,26.432c5.071,13.456,17.286,23.688,32.552,25.5
	c21.813,2.587,41.594-13,44.181-34.814C1198.579,874.928,1196.168,865.681,1191.239,858.141z"/>
<path style="fill:#59B1D9;" d="M1193.5,876.824c-2.587,21.814-22.368,37.4-44.182,34.813c-12.168-1.443-22.397-8.238-28.616-17.75
	c5.071,13.456,17.286,23.688,32.552,25.5c21.813,2.587,41.594-13,44.181-34.814c1.144-9.645-1.267-18.891-6.196-26.431
	C1193.414,863.912,1194.276,870.276,1193.5,876.824z"/>
<path style="fill:#1B1F3C;" d="M1129.558,875.612l17.415,2.065l-2.066,17.415c-0.41,3.456,2.082,6.619,5.539,7.028
	c3.455,0.41,6.618-2.082,7.028-5.538l2.065-17.415l17.415,2.065c3.456,0.409,6.619-2.083,7.029-5.538
	c0.41-3.456-2.083-6.619-5.539-7.029l-17.415-2.065l2.066-17.415c0.41-3.456-2.083-6.619-5.538-7.029
	c-3.457-0.41-6.619,2.082-7.029,5.539l-2.066,17.415l-17.415-2.065c-3.455-0.41-6.619,2.082-7.029,5.539
	C1123.61,872.039,1126.102,875.202,1129.558,875.612z"/>
<path style="fill:#CBE9FC;" d="M1550.8,626.092c4.313-2.839,7.035-5.319,9.104-9.486c1.806-3.638,2.882-10.429,1.035-18.944
	l-223.107,121.761c-2.391,0.24-4.738,0.919-6.945,2.079c-2.391,1.256-4.411,2.968-6.033,5.004l-71.264,38.893
	c-1.394-1.47-2.781-3.16-4.117-5.083c0.57,2.388,0.909,4.646,1.066,6.748l-76.008,41.481l105.553,10.577
	c16.938-8.791,34.029-18.155,51.142-27.946c0.067-4.523,2.852-9.082,7.55-11.551c4.289-2.254,9.108-2.206,12.778-0.27
	c77.572-45.821,154.591-99.277,219.169-146.997C1565.442,628.254,1558.641,624.911,1550.8,626.092z"/>
<path style="fill:#CBE9FC;" d="M1576.09,609.368c4.485,1.236,8.147,0.862,13.139-0.46c-5.152,4.264-7.411,10.123-8.27,15.856
	c91.972-68.482,156.265-123.312,156.265-123.312l-175.962,96.032C1566.381,604.555,1572.17,608.287,1576.09,609.368z"/>
<path style="fill:#1B1F3C;" d="M1323.396,753.702c6.427,12.232,20.202,17.649,30.766,12.098c10.565-5.551,13.918-19.968,7.491-32.2
	c-5.085-9.677-14.767-15.086-23.821-14.177c-2.391,0.24-4.738,0.919-6.945,2.079c-2.391,1.256-4.411,2.968-6.033,5.004
	C1319.307,733.467,1318.424,744.238,1323.396,753.702z"/>
<path style="fill:#1B1F3C;" d="M1450.34,715.263c10.565-5.551,13.918-19.968,7.491-32.2c-6.427-12.232-20.202-17.649-30.767-12.098
	c-10.564,5.551-13.917,19.968-7.49,32.2C1426.001,715.398,1439.776,720.814,1450.34,715.263z"/>
<path style="fill:#FFFFFF;" d="M1339.501,748.523c-0.29-1.909-2.181-8.779,2.053-12.761c-1.805,0.602-3.143,0.825-4.82,0.476
	c-1.518-0.317-3.837-1.631-5.942-4.288c0.994,3.241,0.76,5.896,0.16,7.326c-0.663,1.58-1.606,2.555-3.126,3.7
	C1333.509,741.746,1338.094,747.201,1339.501,748.523z"/>
<path style="fill:#FFFFFF;" d="M1435.108,698.287c-0.29-1.909-2.181-8.779,2.053-12.761c-1.805,0.602-3.142,0.825-4.819,0.475
	c-1.518-0.316-3.838-1.631-5.942-4.288c0.994,3.241,0.76,5.897,0.16,7.326c-0.663,1.58-1.606,2.555-3.125,3.7
	C1429.115,691.51,1433.7,696.965,1435.108,698.287z"/>
<path style="fill:#FFFFFF;" d="M1356.149,755.868c3.119-1.639,3.86-6.366,1.657-10.559c-2.203-4.192-6.517-6.263-9.635-4.625
	c-3.118,1.638-3.86,6.366-1.657,10.559C1348.717,755.435,1353.031,757.506,1356.149,755.868z"/>
<path style="fill:#FFFFFF;" d="M1452.519,705.23c3.119-1.638,3.86-6.366,1.657-10.559c-2.203-4.193-6.517-6.263-9.635-4.625
	c-3.118,1.638-3.86,6.365-1.657,10.558C1445.088,704.797,1449.401,706.868,1452.519,705.23z"/>
<path style="fill:#EA4E70;" d="M1338.776,779.625c-4.698,2.468-7.483,7.027-7.55,11.551c-0.026,1.776,0.366,3.547,1.225,5.183
	c3.049,5.804,10.826,7.722,17.368,4.284c6.543-3.438,9.375-10.93,6.325-16.734c-1.05-1.999-2.662-3.537-4.59-4.554
	C1347.884,777.42,1343.066,777.372,1338.776,779.625z"/>
<path style="fill:#EA4E70;" d="M1472.215,709.51c-6.543,3.438-9.374,10.93-6.324,16.733c3.049,5.804,10.825,7.722,17.368,4.285
	c6.543-3.438,9.374-10.93,6.325-16.734C1486.533,707.991,1478.757,706.073,1472.215,709.51z"/>
<path style="fill:#FFFFFF;" d="M1248.65,780.191c-2.069,4.167-4.79,6.647-9.104,9.487c15.603-2.351,27.089,13.215,30.675,17.037
	c-0.458-5.221-4.401-24.16,7.754-34.221c-4.992,1.322-8.654,1.696-13.139,0.459c-3.025-0.834-7.163-3.248-11.246-7.555
	c-1.394-1.47-2.781-3.16-4.117-5.083c0.57,2.388,0.909,4.646,1.066,6.748C1250.971,772.842,1250.022,777.427,1248.65,780.191z"/>
<path style="fill:#FFFFFF;" d="M1559.904,616.606c-2.069,4.167-4.79,6.647-9.104,9.486c7.841-1.181,14.641,2.162,19.923,6.266
	c5.228,4.063,8.968,8.87,10.752,10.772c-0.263-3.008-1.683-10.571-0.515-18.365c0.859-5.733,3.118-11.592,8.27-15.856
	c-4.992,1.322-8.654,1.696-13.139,0.46c-3.92-1.081-9.709-4.813-14.827-11.883l-0.535-0.755l0.211,0.931
	C1562.786,606.177,1561.71,612.968,1559.904,616.606z"/>
<path style="fill:#FFFFFF;" d="M1242.466,840.793c-1.481-0.408-3.692-1.853-5.608-4.613c0.78,3.267,0.382,5.879-0.301,7.255
	c-0.755,1.521-1.748,2.427-3.323,3.463c5.695-0.858,9.889,4.824,11.197,6.219c-0.168-1.906-1.606-8.819,2.831-12.492
	C1245.439,841.108,1244.103,841.245,1242.466,840.793z"/>
<path style="fill:#FFFFFF;" d="M1285.941,832.481c-2.055-0.567-5.124-2.572-7.782-6.402c1.082,4.535,0.53,8.159-0.417,10.068
	c-1.048,2.111-2.427,3.368-4.612,4.805c7.904-1.191,13.722,6.695,15.539,8.63c-0.232-2.644-2.23-12.239,3.928-17.335
	C1290.068,832.917,1288.213,833.107,1285.941,832.481z"/>
<path style="fill:#FFFFFF;" d="M1565.013,664.355c-2.055-0.567-5.124-2.572-7.782-6.402c1.082,4.534,0.531,8.159-0.417,10.069
	c-1.048,2.11-2.426,3.367-4.611,4.805c7.904-1.191,13.723,6.695,15.539,8.631c-0.231-2.645-2.229-12.239,3.929-17.335
	C1569.141,664.792,1567.285,664.982,1565.013,664.355z"/>
<path style="fill:#FFFFFF;" d="M1235.796,783.215c0.363,0.811,1.315,1.175,2.126,0.812c0.811-0.363,1.175-1.315,0.812-2.126
	c-0.362-0.811-1.314-1.175-2.125-0.812C1235.797,781.452,1235.433,782.403,1235.796,783.215z"/>
<path style="fill:#FFFFFF;" d="M1289.743,804.062c1.121-0.502,1.625-1.818,1.123-2.94c-0.502-1.122-1.819-1.625-2.941-1.123
	c-1.123,0.502-1.625,1.818-1.124,2.941C1287.304,804.061,1288.62,804.563,1289.743,804.062z"/>
<path style="fill:#FFFFFF;" d="M1536.385,639.12c1.123-0.502,1.625-1.818,1.124-2.941c-0.502-1.122-1.818-1.625-2.941-1.123
	c-1.122,0.502-1.625,1.818-1.124,2.941C1533.946,639.119,1535.263,639.622,1536.385,639.12z"/>
<path style="fill:#FFFFFF;" d="M1606.503,645.259c-1.123,0.502-1.625,1.818-1.124,2.94c0.502,1.122,1.818,1.626,2.941,1.124
	c1.122-0.502,1.624-1.818,1.123-2.941C1608.942,645.26,1607.625,644.757,1606.503,645.259z"/>
<path style="fill:#FFFFFF;" d="M1274.806,869.133c-0.67,0.299-0.971,1.086-0.671,1.757c0.3,0.67,1.087,0.971,1.757,0.671
	c0.671-0.3,0.971-1.086,0.671-1.757C1276.263,869.134,1275.476,868.833,1274.806,869.133z"/>
<path style="fill:#FFFFFF;" d="M1245.424,817.36c-0.671,0.3-0.971,1.087-0.672,1.757c0.3,0.671,1.086,0.97,1.757,0.671
	c0.671-0.3,0.971-1.087,0.671-1.757C1246.88,817.36,1246.094,817.06,1245.424,817.36z"/>
<path style="fill:#FFFFFF;" d="M354.043,1102.558c1.518,1.173,3.304,2.145,5.388,2.831c8.897,2.928,16.473-1.57,21.6-6.018
	c18.915-16.408,33.515-35.483,48.519-54.229c25.317-31.629,52.39-62.878,90.393-86.053c6.766-4.126,14.086-8.212,17.039-14.564
	c2.954-6.352-0.235-15.779-9.603-20.097c-9.481-4.371-19.72-1.581-27.65,1.584c-10.233,4.082-20.072,8.58-29.495,13.458
	c-54.234,28.073-94.473,68.565-115.806,116.641c-4.231,9.536-7.747,19.472-7.775,30.19
	C346.638,1091.697,348.652,1098.394,354.043,1102.558z"/>
</svg>
